<mxfile host="app.diagrams.net" agent="Mozilla/5.0 (Windows NT 10.0; Win64; x64) AppleWebKit/537.36 (KHTML, like Gecko) Chrome/132.0.0.0 Safari/537.36" version="26.0.10">
  <diagram name="Page-1" id="aWooMLoZ3e_ePpNCLRPB">
    <mxGraphModel dx="1434" dy="772" grid="1" gridSize="10" guides="1" tooltips="1" connect="1" arrows="1" fold="1" page="1" pageScale="1" pageWidth="850" pageHeight="1100" math="0" shadow="0">
      <root>
        <mxCell id="0" />
        <mxCell id="1" parent="0" />
        <mxCell id="GpsOzO5srPYsRFzOiNU8-18" value="" style="rounded=0;whiteSpace=wrap;html=1;fillColor=#dae8fc;strokeColor=#6c8ebf;" vertex="1" parent="1">
          <mxGeometry x="320" y="270" width="220" height="100" as="geometry" />
        </mxCell>
        <mxCell id="GpsOzO5srPYsRFzOiNU8-19" value="Data Collection" style="rounded=0;whiteSpace=wrap;html=1;fillColor=#ffe6cc;strokeColor=#d79b00;" vertex="1" parent="1">
          <mxGeometry x="370" y="130" width="120" height="30" as="geometry" />
        </mxCell>
        <mxCell id="GpsOzO5srPYsRFzOiNU8-20" value="Data Processing" style="rounded=0;whiteSpace=wrap;html=1;fillColor=#ffe6cc;strokeColor=#d79b00;" vertex="1" parent="1">
          <mxGeometry x="370" y="180" width="120" height="30" as="geometry" />
        </mxCell>
        <mxCell id="GpsOzO5srPYsRFzOiNU8-21" value="Model Selection" style="rounded=0;whiteSpace=wrap;html=1;fillColor=#ffe6cc;strokeColor=#d79b00;" vertex="1" parent="1">
          <mxGeometry x="370" y="230" width="120" height="30" as="geometry" />
        </mxCell>
        <mxCell id="GpsOzO5srPYsRFzOiNU8-22" value="Training &amp;amp; Validation" style="rounded=0;whiteSpace=wrap;html=1;fillColor=#ffe6cc;strokeColor=#d79b00;" vertex="1" parent="1">
          <mxGeometry x="370" y="280" width="120" height="30" as="geometry" />
        </mxCell>
        <mxCell id="GpsOzO5srPYsRFzOiNU8-23" value="Evaluation" style="rounded=0;whiteSpace=wrap;html=1;fillColor=#ffe6cc;strokeColor=#d79b00;" vertex="1" parent="1">
          <mxGeometry x="370" y="330" width="120" height="30" as="geometry" />
        </mxCell>
        <mxCell id="GpsOzO5srPYsRFzOiNU8-24" value="Final Model" style="rounded=0;whiteSpace=wrap;html=1;fillColor=#ffe6cc;strokeColor=#d79b00;" vertex="1" parent="1">
          <mxGeometry x="370" y="380" width="120" height="30" as="geometry" />
        </mxCell>
        <mxCell id="GpsOzO5srPYsRFzOiNU8-25" value="" style="endArrow=classic;html=1;rounded=0;" edge="1" parent="1">
          <mxGeometry width="50" height="50" relative="1" as="geometry">
            <mxPoint x="429.5" y="160" as="sourcePoint" />
            <mxPoint x="429.5" y="180" as="targetPoint" />
          </mxGeometry>
        </mxCell>
        <mxCell id="GpsOzO5srPYsRFzOiNU8-26" value="" style="endArrow=classic;html=1;rounded=0;" edge="1" parent="1">
          <mxGeometry width="50" height="50" relative="1" as="geometry">
            <mxPoint x="430" y="210" as="sourcePoint" />
            <mxPoint x="430" y="230" as="targetPoint" />
          </mxGeometry>
        </mxCell>
        <mxCell id="GpsOzO5srPYsRFzOiNU8-27" value="" style="endArrow=classic;html=1;rounded=0;" edge="1" parent="1">
          <mxGeometry width="50" height="50" relative="1" as="geometry">
            <mxPoint x="429.5" y="260" as="sourcePoint" />
            <mxPoint x="429.5" y="280" as="targetPoint" />
          </mxGeometry>
        </mxCell>
        <mxCell id="GpsOzO5srPYsRFzOiNU8-28" value="" style="endArrow=classic;html=1;rounded=0;" edge="1" parent="1">
          <mxGeometry width="50" height="50" relative="1" as="geometry">
            <mxPoint x="429.5" y="310" as="sourcePoint" />
            <mxPoint x="429.5" y="330" as="targetPoint" />
          </mxGeometry>
        </mxCell>
        <mxCell id="GpsOzO5srPYsRFzOiNU8-29" value="" style="endArrow=classic;html=1;rounded=0;" edge="1" parent="1">
          <mxGeometry width="50" height="50" relative="1" as="geometry">
            <mxPoint x="429.5" y="360" as="sourcePoint" />
            <mxPoint x="429.5" y="380" as="targetPoint" />
          </mxGeometry>
        </mxCell>
        <mxCell id="GpsOzO5srPYsRFzOiNU8-30" value="" style="endArrow=none;html=1;rounded=0;" edge="1" parent="1">
          <mxGeometry width="50" height="50" relative="1" as="geometry">
            <mxPoint x="330" y="346.5" as="sourcePoint" />
            <mxPoint x="370" y="346" as="targetPoint" />
          </mxGeometry>
        </mxCell>
        <mxCell id="GpsOzO5srPYsRFzOiNU8-31" value="" style="endArrow=none;html=1;rounded=0;" edge="1" parent="1">
          <mxGeometry width="50" height="50" relative="1" as="geometry">
            <mxPoint x="330" y="347" as="sourcePoint" />
            <mxPoint x="330" y="300" as="targetPoint" />
          </mxGeometry>
        </mxCell>
        <mxCell id="GpsOzO5srPYsRFzOiNU8-32" value="" style="endArrow=classic;html=1;rounded=0;entryX=-0.006;entryY=0.669;entryDx=0;entryDy=0;entryPerimeter=0;" edge="1" parent="1">
          <mxGeometry width="50" height="50" relative="1" as="geometry">
            <mxPoint x="329.72" y="299.97" as="sourcePoint" />
            <mxPoint x="370.00000000000006" y="300.04" as="targetPoint" />
          </mxGeometry>
        </mxCell>
        <mxCell id="GpsOzO5srPYsRFzOiNU8-33" value="" style="edgeStyle=segmentEdgeStyle;endArrow=classic;html=1;curved=0;rounded=0;endSize=8;startSize=8;" edge="1" parent="1" target="GpsOzO5srPYsRFzOiNU8-20">
          <mxGeometry width="50" height="50" relative="1" as="geometry">
            <mxPoint x="430" y="370" as="sourcePoint" />
            <mxPoint x="510" y="190" as="targetPoint" />
            <Array as="points">
              <mxPoint x="630" y="370" />
              <mxPoint x="630" y="190" />
            </Array>
          </mxGeometry>
        </mxCell>
        <mxCell id="GpsOzO5srPYsRFzOiNU8-34" value="" style="endArrow=classic;html=1;rounded=0;" edge="1" parent="1">
          <mxGeometry width="50" height="50" relative="1" as="geometry">
            <mxPoint x="630" y="244" as="sourcePoint" />
            <mxPoint x="490" y="246.35" as="targetPoint" />
          </mxGeometry>
        </mxCell>
      </root>
    </mxGraphModel>
  </diagram>
</mxfile>
